<svg id="Layer_1" height="512" viewBox="0 0 128 128" width="512" xmlns="http://www.w3.org/2000/svg" data-name="Layer 1"><path d="m61.087 35.912a6.491 6.491 0 0 0 -10.1 1.63 6.483 6.483 0 0 0 -11.367 0 6.491 6.491 0 0 0 -10.1-1.63l15.78-25.662z" fill="#fc364a"/><path d="m45.3 29.34a1.75 1.75 0 0 0 -1.75 1.75v18.91a1.75 1.75 0 0 0 3.5 0v-18.91a1.75 1.75 0 0 0 -1.75-1.75z" fill="#303b58"/><path d="m101.953 21.135-.545-5.717-19.092 1.82a11.007 11.007 0 0 0 -9.216 6.973l-18.325 47.181 5.353 2.079 18.35-47.245a5.153 5.153 0 0 1 4.314-3.264z" fill="#303b58"/><path d="m91.752 50h-55.5a39.562 39.562 0 1 0 55.5 0z" fill="#b4df45"/><path d="m91.752 50h-55.5a39.677 39.677 0 0 0 -8.193 11.674 25.415 25.415 0 0 1 22.191 2.326c11.75 7 16.589 2.757 20.219-.915 4.531-4.585 12.531-7.835 21.281.915 8.654 8.654 10.171 3.15 10.2 3.028a39.553 39.553 0 0 0 -10.198-17.028z" fill="#febfa5"/><path d="m57.083 109.184c-9.167-3.241-14.427-8.184-17.225-11.767a1.75 1.75 0 0 0 -2.758 2.157c3.086 3.945 8.854 9.388 18.816 12.91a1.75 1.75 0 1 0 1.166-3.3z" fill="#fff"/><path d="m37.25 93.3c-.074-.159-.113-.254-.122-.276a1.75 1.75 0 0 0 -3.259 1.276s.063.166.205.471a1.75 1.75 0 0 0 3.176-1.471z" fill="#fff"/><path d="m50.984 37.542a6.483 6.483 0 0 0 -11.367 0l5.683-27.292z" fill="#d0f5fe"/></svg>