<svg height="512" viewBox="0 0 64 64" width="512" xmlns="http://www.w3.org/2000/svg"><path d="m26.31 45h7.46c-.05.48-.1.97-.16 1.45-.16 1.45-.35 2.9-.58 4.35q-3.99-.105-7.98.02a59.225 59.225 0 0 0 1.26-5.82z" fill="#a78966"/><path d="m26.59 43.28c.26-1.75.44-3.52.55-5.28h7.05c-.02.9-.06 1.8-.11 2.7-.03.78-.08 1.55-.14 2.32-.05.66-.11 1.32-.17 1.98h-7.46c.11-.57.2-1.14.28-1.72z" fill="#ebe5dd"/><path d="m34.12 31q.135 3 .09 6c0 .33-.01.67-.02 1h-7.05c.16-2.33.19-4.67.12-7z" fill="#a78966"/><path d="m34.12 30.99v.01h-6.86q-.075-3.015-.41-6h6.82q.315 2.985.45 5.99z" fill="#ebe5dd"/><path d="m33.67 24.98v.02h-6.82q-.3-2.91-.81-5.78l2.78-1.39 4.18 2.09c.27 1.68.49 3.37.67 5.06z" fill="#a78966"/><path d="m49.48 28.16-16.48-8.24-4.18-2.09-20.66 10.33c-.99-1.98 3.02-5.98 8.95-8.95a24.681 24.681 0 0 1 9.49-2.86l-20.54-7.68c.77-2.06 6.43-1.86 12.64.46 4.93 1.84 8.72 4.45 9.68 6.49.52-2.19 3.72-5.53 8.2-8.32 5.62-3.51 11.13-4.83 12.3-2.96l-19.45 12.14c2.24-.53 6.58.47 11.1 2.73 5.93 2.97 9.94 6.97 8.95 8.95z" fill="#64c37d"/><path d="m33.76 45q.1-.99.18-1.98c.06-.77.11-1.54.14-2.32a4.066 4.066 0 0 0 1.69.34c3.77 0 3.77-4.08 7.55-4.08s3.78 4.08 7.56 4.08 3.78-4.08 7.56-4.08a3.94 3.94 0 0 1 2.56.87v6a3.94 3.94 0 0 0 -2.56-.87c-3.78 0-3.78 4.08-7.56 4.08s-3.78-4.08-7.56-4.08-3.78 4.08-7.55 4.08a3.909 3.909 0 0 1 -2.16-.59c.06-.48.11-.97.15-1.45z" fill="#2488ff"/><path d="m27.14 38c-.11 1.76-.29 3.52-.54 5.27-2.28.94-2.8 3.77-5.94 3.77-3.78 0-3.78-4.08-7.56-4.08s-3.77 4.08-7.55 4.08a3.963 3.963 0 0 1 -2.55-.86v-6a3.963 3.963 0 0 0 2.55.86c3.78 0 3.78-4.08 7.55-4.08s3.78 4.08 7.56 4.08c3.4 0 3.73-3.31 6.53-3.97-.01.31-.02.62-.05.93z" fill="#2488ff"/><path d="m26.34 44.9c-.34 1.98-.76 3.96-1.29 5.92a135.792 135.792 0 0 0 -22.05 2.53v-7.17a3.963 3.963 0 0 0 2.55.86c3.78 0 3.78-4.08 7.55-4.08s3.78 4.08 7.56 4.08c3.14 0 3.66-2.83 5.94-3.77-.08.54-.17 1.08-.26 1.63z" fill="#005ece"/><path d="m61 43.83v10.68a135.528 135.528 0 0 0 -27.97-3.71c.23-1.45.42-2.9.58-4.35a3.909 3.909 0 0 0 2.16.59c3.77 0 3.77-4.08 7.55-4.08s3.78 4.08 7.56 4.08 3.78-4.08 7.56-4.08a3.94 3.94 0 0 1 2.56.87z" fill="#005ece"/><path d="m33.03 50.8a135.528 135.528 0 0 1 27.97 3.71v6.49h-58v-7.65a135.792 135.792 0 0 1 22.05-2.53q3.99-.12 7.98-.02z" fill="#ffb655"/></svg>